# xmcd
#
# Track frame offsets: 
#        150
#        16317
#        31839
#        49825
#        63788
#        78953
#        92134
#        107033
#        122040
#        137954
#
# Disc length: 2107 seconds
#
# Revision: 0
# Processed by: cddbd v1.5.2PL0 Copyright (c) Steve Scherf et al.
# Submitted via: ExactAudioCopy v0.99pb4
#
DISCID=7b08390a
DTITLE=Bill Anderson - Out in the Country
DYEAR=1994
DGENRE=Classic Country
TTITLE0=Once More
TTITLE1=No Ordinary Memory
TTITLE2=A Place in the Country
TTITLE3=Family Reunion
TTITLE4=I'll Hold You in My Heart (Till I Can Hold You in My Arms Agai
TTITLE4=n)
TTITLE5=Your Eyes Don't Lie to Me
TTITLE6=Green, Green Grass of Home
TTITLE7=Deck of Cards
TTITLE8=Detroit City
TTITLE9=I Wonder if God Likes Country Music
EXTD=
EXTT0=
EXTT1=
EXTT2=
EXTT3=
EXTT4=
EXTT5=
EXTT6=
EXTT7=
EXTT8=
EXTT9=
PLAYORDER=
